#!OML:ASF H:\GeneralSubjects\Female5\Project 1\Capture day 1\Session 1\Female5.ASF
:FULLY-SPECIFIED
:DEGREES
321
root 6.52329 15.8387 2.54938 -177.11 -33.0388 -169.022
lowerback 5.48615 1.54402 3.29973
upperback -11.1498 2.18244 4.38481
thorax -15.5262 0.611965 2.77837
lowerneck -19.5162 -1.3041 -2.22977
upperneck 39.2137 -5.4692 3.34154
head 18.0979 -3.02695 0.496033
rclavicle -3.26504e-014 7.51406e-014
rhumerus -43.5649 9.28296 -75.5957
rradius 27.4293
rwrist 3.08798
rhand -29.7031 -20.8353
rfingers 7.12502
rthumb -3.0307 -50.7936
lclavicle -3.26504e-014 7.51406e-014
lhumerus -50.4826 4.19379 78.5588
lradius 27.7883
lwrist -11.0768
lhand -27.0149 36.4204
lfingers 7.12502
lthumb -0.434498 66.3997
rfemur 6.12763 28.0655 44.9534
rtibia -16.7137
rfoot -32.7763 -33.8479
rtoes 20.2737
lfemur -16.2943 -18.98 4.19348
ltibia 17.8599
lfoot -30.9358 -10.0865
ltoes -16.3339
322
root 6.54113 15.8371 2.55514 -177.226 -33.2015 -168.832
lowerback 5.53593 1.53132 3.49385
upperback -11.1365 2.1983 4.45351
thorax -15.5398 0.600494 2.74477
lowerneck -19.4943 -1.38229 -2.24417
upperneck 39.2622 -5.63667 3.39593
head 18.1321 -3.09324 0.487171
rclavicle 4.57205e-014 -3.02153e-014
rhumerus -43.3949 9.17684 -75.526
rradius 27.6095
rwrist 3.02606
rhand -29.6538 -18.8985
rfingers 7.12502
rthumb -2.98308 -48.8574
lclavicle 4.57205e-014 -3.02153e-014
lhumerus -50.0761 3.84412 79.5101
lradius 27.9586
lwrist -10.4175
lhand -27.0862 35.6845
lfingers 7.12502
lthumb -0.503373 65.6636
rfemur 5.98111 27.9126 45.0172
rtibia -16.7177
rfoot -32.7159 -33.7938
rtoes 18.6684
lfemur -16.5777 -18.9377 4.50812
ltibia 17.9959
lfoot -30.8741 -9.77494
ltoes -17.0878
323
root 6.55805 15.8348 2.5578 -177.227 -33.3617 -168.755
lowerback 5.49059 1.51063 3.55361
upperback -11.1243 2.17704 4.49851
thorax -15.4952 0.586325 2.76573
lowerneck -19.5115 -1.45351 -2.24579
upperneck 39.2714 -5.80525 3.4982
head 18.1565 -3.1472 0.498479
rclavicle -2.33572e-014 1.82882e-014
rhumerus -43.2279 9.27686 -75.6048
rradius 27.7967
rwrist 2.76285
rhand -29.7017 -17.8744
rfingers 7.12502
rthumb -3.0294 -47.8326
lclavicle -2.33572e-014 1.82882e-014
lhumerus -49.8098 3.28229 80.544
lradius 28.5096
lwrist -10.0294
lhand -27.0076 35.0767
lfingers 7.12502
lthumb -0.427439 65.056
rfemur 5.74822 27.779 44.9428
rtibia -16.6601
rfoot -32.7316 -33.7858
rtoes 18.9625
lfemur -16.8577 -18.9511 4.69579
ltibia 18.1155
lfoot -30.5723 -10.5247
ltoes -16.0759
324
root 6.57289 15.8311 2.55988 -177.187 -33.5104 -168.795
lowerback 5.42521 1.5049 3.51945
upperback -11.1204 2.16279 4.54617
thorax -15.4515 0.586588 2.84121
lowerneck -19.7969 -1.4564 -2.21487
upperneck 39.4255 -5.87473 3.57783
head 18.33 -3.15236 0.509205
rclavicle 2.23633e-014 -8.98507e-014
rhumerus -43.1071 9.47056 -75.6534
rradius 27.9708
rwrist 2.52562
rhand -29.5713 -17.6092
rfingers 7.12502
rthumb -2.90348 -47.5692
lclavicle 2.23633e-014 -8.98507e-014
lhumerus -49.7259 2.50665 81.767
lradius 29.3807
lwrist -9.54005
lhand -26.3299 34.2718
lfingers 7.12502
lthumb 0.227079 64.2515
rfemur 5.58063 27.6507 44.8208
rtibia -16.5901
rfoot -32.7331 -33.5544
rtoes 19.4107
lfemur -17.0149 -19.2364 4.7287
ltibia 18.1061
lfoot -30.2474 -11.8791
ltoes -13.8085
325
root 6.58734 15.8252 2.56009 -177.248 -33.6368 -168.846
lowerback 5.44609 1.51416 3.45358
upperback -11.1123 2.17436 4.598
thorax -15.4615 0.604133 2.93434
lowerneck -19.8514 -1.4994 -2.22029
upperneck 39.5481 -5.96134 3.55218
head 18.4202 -3.19498 0.476267
rclavicle 7.35503e-015 1.51076e-014
rhumerus -43.0963 9.64257 -75.6788
rradius 28.211
rwrist 2.2937
rhand -29.4613 -17.1558
rfingers 7.12502
rthumb -2.7972 -47.1172
lclavicle 7.35503e-015 1.51076e-014
lhumerus -49.6742 1.52651 83.1673
lradius 30.1687
lwrist -9.105
lhand -26.0301 34.1377
lfingers 7.12502
lthumb 0.516687 64.1168
rfemur 5.57072 27.5085 44.7863
rtibia -16.5011
rfoot -32.7252 -33.1539
rtoes 18.3335
lfemur -17.0018 -19.4124 4.70262
ltibia 18.0499
lfoot -30.1375 -12.1278
ltoes -13.3698
326
root 6.60037 15.8196 2.55804 -177.398 -33.7956 -168.854
lowerback 5.51353 1.50849 3.39237
upperback -11.0835 2.17232 4.64353
thorax -15.4751 0.616261 3.01892
lowerneck -19.8734 -1.58307 -2.19785
upperneck 39.6449 -6.09821 3.47318
head 18.4851 -3.26128 0.403034
rclavicle -7.48424e-014 -1.23246e-014
rhumerus -43.0935 9.73801 -75.7306
rradius 28.4695
rwrist 1.9788
rhand -29.921 -17.8746
rfingers 7.12502
rthumb -3.24118 -47.8297
lclavicle -7.48424e-014 -1.23246e-014
lhumerus -49.5484 0.531011 84.5193
lradius 30.7807
lwrist -9.24575
lhand -26.4654 34.6357
lfingers 7.12502
lthumb 0.0962858 64.6154
rfemur 5.64445 27.311 44.8202
rtibia -16.419
rfoot -32.8339 -33.0884
rtoes 17.8709
lfemur -16.9472 -19.487 4.6912
ltibia 18.0468
lfoot -30.0661 -11.8503
ltoes -13.8451
327
root 6.61136 15.8181 2.55806 -177.486 -34.0112 -168.886
lowerback 5.54949 1.46863 3.31326
upperback -11.0641 2.11724 4.68135
thorax -15.4782 0.604627 3.11508
lowerneck -19.9633 -1.63143 -2.06938
upperneck 39.7868 -6.1784 3.28533
head 18.5815 -3.30246 0.269846
rclavicle -2.72335e-014 -3.97569e-014
rhumerus -42.956 9.67806 -75.7451
rradius 28.5572
rwrist 1.86669
rhand -30.4241 -18.4493
rfingers 7.12502
rthumb -3.72703 -48.3964
lclavicle -2.72335e-014 -3.97569e-014
lhumerus -49.3552 -0.155551 85.5125
lradius 31.3172
lwrist -9.5547
lhand -27.0263 33.4046
lfingers 7.12502
lthumb -0.445486 63.3839
rfemur 5.6973 27.0737 44.8105
rtibia -16.4412
rfoot -32.9068 -33.5029
rtoes 18.2596
lfemur -17.0568 -19.5965 4.6645
ltibia 18.1537
lfoot -30.2582 -10.8949
ltoes -15.5423
328
root 6.62223 15.8195 2.55981 -177.451 -34.2143 -168.983
lowerback 5.53387 1.43876 3.1805
upperback -11.0751 2.06124 4.7035
thorax -15.486 0.596119 3.22541
lowerneck -19.6743 -1.72249 -2.14871
upperneck 39.6059 -6.29228 3.33132
head 18.4073 -3.3592 0.289289
rclavicle 3.21037e-014 9.14409e-015
rhumerus -42.8884 9.72666 -75.8255
rradius 28.7062
rwrist 1.83983
rhand -30.3124 -17.7705
rfingers 7.12502
rthumb -3.61917 -47.7196
lclavicle 3.21037e-014 9.14409e-015
lhumerus -49.1484 -0.806869 86.3714
lradius 32.0946
lwrist -9.14715
lhand -26.9287 31.9668
lfingers 7.12502
lthumb -0.351178 61.9463
rfemur 5.65069 26.8792 44.7003
rtibia -16.5053
rfoot -32.8507 -33.7698
rtoes 18.6398
lfemur -17.2542 -19.7726 4.58936
ltibia 18.263
lfoot -30.69 -9.56162
ltoes -17.7607
329
root 6.63421 15.821 2.56125 -177.402 -34.3807 -169.048
lowerback 5.51195 1.44483 3.07543
upperback -11.1019 2.05571 4.72601
thorax -15.5103 0.60681 3.31251
lowerneck -19.4565 -1.798 -2.3709
upperneck 39.4667 -6.39335 3.52823
head 18.293 -3.40964 0.405385
rclavicle 1.30204e-014 -4.33351e-014
rhumerus -42.919 9.93324 -75.9623
rradius 28.9773
rwrist 1.60893
rhand -30.064 -17.4373
rfingers 7.12502
rthumb -3.37923 -47.3902
lclavicle 1.30204e-014 -4.33351e-014
lhumerus -48.9358 -1.54496 87.2354
lradius 33.2319
lwrist -8.25311
lhand -25.5476 32.3402
lfingers 7.12502
lthumb 0.982655 62.3177
rfemur 5.54851 26.7348 44.6061
rtibia -16.5038
rfoot -32.9386 -33.7385
rtoes 18.4899
lfemur -17.4127 -19.8681 4.56324
ltibia 18.3127
lfoot -30.7429 -9.2043
ltoes -18.0855
330
root 6.6464 15.8221 2.56061 -177.427 -34.5489 -169.041
lowerback 5.54928 1.43608 3.03862
upperback -11.1492 2.04111 4.74643
thorax -15.5959 0.604162 3.36272
lowerneck -19.2776 -1.82059 -2.54539
upperneck 39.4122 -6.43818 3.6987
head 18.2334 -3.43689 0.509698
rclavicle 3.32964e-014 3.37934e-014
rhumerus -42.9128 10.0185 -76.0719
rradius 29.132
rwrist 1.45938
rhand -30.298 -18.3035
rfingers 7.12502
rthumb -3.60522 -48.2527
lclavicle 3.32964e-014 3.37934e-014
lhumerus -48.7308 -2.22626 87.9434
lradius 34.1748
lwrist -7.95916
lhand -24.66 32.6521
lfingers 7.12502
lthumb 1.83991 62.6239
rfemur 5.45876 26.5756 44.5704
rtibia -16.4171
rfoot -33.101 -33.6342
rtoes 18.2691
lfemur -17.5354 -19.7586 4.62613
ltibia 18.3201
lfoot -30.4426 -9.10127
ltoes -18.2087
331
root 6.65536 15.8226 2.55755 -177.464 -34.6954 -169.001
lowerback 5.53615 1.41256 3.02936
upperback -11.1931 2.00476 4.76752
thorax -15.6422 0.587456 3.40186
lowerneck -19.0811 -1.82936 -2.56965
upperneck 39.3518 -6.4459 3.70016
head 18.1472 -3.45065 0.516908
rclavicle 5.45664e-014 -1.19271e-015
rhumerus -42.8976 10.006 -76.1602
rradius 29.2494
rwrist 1.56963
rhand -30.2281 -18.4352
rfingers 7.12502
rthumb -3.5377 -48.3856
lclavicle 5.45664e-014 -1.19271e-015
lhumerus -48.4298 -2.77453 88.4934
lradius 34.6085
lwrist -8.05951
lhand -25.0671 32.2997
lfingers 7.12502
lthumb 1.44672 62.2745
rfemur 5.36176 26.4358 44.5466
rtibia -16.3399
rfoot -33.0199 -33.5349
rtoes 18.9135
lfemur -17.6382 -19.6476 4.71612
ltibia 18.3121
lfoot -30.2766 -8.76617
ltoes -19.0413
332
root 6.66146 15.822 2.55389 -177.5 -34.8059 -168.977
lowerback 5.43875 1.40369 3.03408
upperback -11.1956 1.98588 4.7875
thorax -15.5817 0.578263 3.42491
lowerneck -18.8643 -1.84804 -2.63571
upperneck 39.2347 -6.44957 3.72944
head 18.0263 -3.46267 0.547011
rclavicle 1.3418e-014 -5.48646e-014
rhumerus -42.9094 10.1851 -76.3223
rradius 29.4232
rwrist 1.52733
rhand -29.6288 -17.1452
rfingers 7.12502
rthumb -2.95899 -47.1045
lclavicle 1.3418e-014 -5.48646e-014
lhumerus -48.0705 -3.30659 89.0194
lradius 34.9509
lwrist -7.81099
lhand -26.1506 31.9281
lfingers 7.12502
lthumb 0.400275 61.9075
rfemur 5.34506 26.3272 44.5662
rtibia -16.3523
rfoot -32.8227 -33.561
rtoes 19.5798
lfemur -17.6387 -19.7223 4.75817
ltibia 18.2666
lfoot -30.0164 -9.755
ltoes -17.2897
333
root 6.66809 15.8205 2.55006 -177.535 -34.9319 -169.063
lowerback 5.41434 1.38596 2.95209
upperback -11.1966 1.95061 4.78135
thorax -15.5681 0.571977 3.46995
lowerneck -18.6737 -1.84932 -2.76256
upperneck 39.1734 -6.46391 3.86314
head 17.9546 -3.47594 0.631928
rclavicle -9.93923e-015 9.66093e-014
rhumerus -42.9668 10.5349 -76.5858
rradius 29.5462
rwrist 1.22982
rhand -29.4412 -16.2314
rfingers 7.12502
rthumb -2.77779 -46.193
lclavicle -9.93923e-015 9.66093e-014
lhumerus -47.8363 -3.84638 89.488
lradius 35.4554
lwrist -7.383
lhand -27.4576 31.8129
lfingers 7.12502
lthumb -0.862081 61.7909
rfemur 5.4614 26.1806 44.5652
rtibia -16.4372
rfoot -32.6863 -33.6654
rtoes 19.6552
lfemur -17.5235 -19.9011 4.65056
ltibia 18.1528
lfoot -29.7643 -10.6141
ltoes -15.4637
334
root 6.67571 15.8202 2.54643 -177.592 -35.0763 -169.071
lowerback 5.41863 1.36758 2.88372
upperback -11.212 1.91915 4.81065
thorax -15.5931 0.567268 3.54866
lowerneck -18.5978 -1.83646 -2.80398
upperneck 39.1828 -6.43405 3.86276
head 17.9398 -3.47392 0.646376
rclavicle 5.11871e-014 -3.61788e-014
rhumerus -42.9446 10.641 -76.6586
rradius 29.5493
rwrist 1.17877
rhand -29.5045 -16.106
rfingers 7.12502
rthumb -2.83889 -46.0669
lclavicle 5.11871e-014 -3.61788e-014
lhumerus -47.625 -4.19977 89.8097
lradius 35.9957
lwrist -7.15166
lhand -27.8937 31.9186
lfingers 7.12502
lthumb -1.28325 61.8945
rfemur 5.49912 26.0297 44.5956
rtibia -16.454
rfoot -32.6217 -33.7001
rtoes 19.3153
lfemur -17.4994 -19.9967 4.65266
ltibia 18.0428
lfoot -29.9107 -9.78345
ltoes -16.6625
335
root 6.68224 15.8206 2.54131 -177.709 -35.2093 -168.909
lowerback 5.33256 1.35593 2.98075
upperback -11.1924 1.91179 4.85983
thorax -15.5115 0.554674 3.54967
lowerneck -18.6154 -1.82695 -2.75577
upperneck 39.1677 -6.37448 3.75319
head 17.9237 -3.45382 0.60062
rclavicle -3.96575e-014 -3.57812e-015
rhumerus -42.8003 10.593 -76.6376
rradius 29.5536
rwrist 1.23514
rhand -29.6885 -16.8326
rfingers 7.12502
rthumb -3.01662 -46.791
lclavicle -3.96575e-014 -3.57812e-015
lhumerus -47.2275 -4.36495 89.938
lradius 36.2512
lwrist -7.2254
lhand -28.2625 31.6876
lfingers 7.12502
lthumb -1.63942 61.6611
rfemur 5.42752 25.9086 44.723
rtibia -16.3469
rfoot -32.5936 -33.6407
rtoes 19.1378
lfemur -17.5451 -20.0358 4.85717
ltibia 17.952
lfoot -29.958 -9.35882
ltoes -17.2482
